Coordinates
version=1
nRows=5
nColumns=46
inDegrees=yes

Units are S.I. units (second, meters, Newtons, ...)
Angles are in degrees.

endheader
time	pelvis_tilt	pelvis_list	pelvis_rotation	pelvis_tx	pelvis_ty	pelvis_tz	bb_angle	bb_tx	bb_ty	bb_tz	hip_flexion_r	hip_adduction_r	hip_rotation_r	knee_angle_r	knee_angle_r_beta	ankle_angle_r	subtalar_angle_r	mtp_angle_r	crank_angle_r	hip_flexion_l	hip_adduction_l	hip_rotation_l	knee_angle_l	knee_angle_l_beta	ankle_angle_l	subtalar_angle_l	mtp_angle_l	crank_angle_l	lumbar_extension	lumbar_bending	lumbar_rotation	arm_flex_r	arm_add_r	arm_rot_r	elbow_flex_r	pro_sup_r	wrist_flex_r	wrist_dev_r	arm_flex_l	arm_add_l	arm_rot_l	elbow_flex_l	pro_sup_l	wrist_flex_l	wrist_dev_l
      0.00500000	    -19.77730937	      2.93471911	      2.88992249	      0.09349277	      1.07375056	     -0.26052200	      0.00000000	      0.50000000	      0.00000000	      0.25000000	     46.21448139	     -8.07244736	     -3.24686801	     42.74833656	      0.74609922	      1.35643232	    -11.30063002	      0.00000000	      0.00000000	     96.88805238	     -3.08887653	     -1.62530263	    108.02128415	      1.88532707	     23.64407710	     -5.14025571	      0.00000000	      0.00000000	    -46.80230275	     -1.37564643	     -3.87300816	     89.69089446	     -6.74367835	     38.80499367	     22.47415403	     28.09388435	      0.00000000	      0.00000000	     89.77110816	     -1.59999486	     40.64419646	     23.09934395	     26.37518938	      0.00000000	      0.00000000
      0.01000000	    -19.78339472	      2.93800030	      2.87881614	      0.09352977	      1.07375562	     -0.26049917	      0.00000000	      0.50000000	      0.00000000	      0.25000000	     46.22086324	     -8.06284055	     -3.23766954	     42.74792705	      0.74609208	      1.34245867	    -11.32909943	      0.00000000	      0.00000000	     96.89455306	     -3.11140399	     -1.63273962	    108.02672617	      1.88542205	     23.63068765	     -5.11618435	      0.00000000	      0.00000000	    -46.80598474	     -1.38866470	     -3.82593240	     89.68688209	     -6.83984184	     39.05716513	     23.43192285	     23.55655012	      0.00000000	      0.00000000	     89.77108247	     -1.36855879	     40.42503508	     24.02432884	     20.17836340	      0.00000000	      0.00000000
      0.01500000	    -19.73836050	      2.90245368	      2.87881066	      0.09352815	      1.07380230	     -0.26056445	      0.00000000	      0.50000000	      0.00000000	      0.25000000	     46.16495993	     -8.03985167	     -3.26672921	     42.73377040	      0.74584500	      1.27484451	    -11.35303512	      0.00000000	      0.00000000	     96.85068006	     -3.09747674	     -1.54927792	    108.05528577	      1.88592051	     23.76191839	     -4.91489081	      0.00000000	      0.00000000	    -46.89159719	     -1.34070367	     -3.76689604	     89.68270194	     -6.65708413	     37.57083507	     23.39211081	     24.84524498	      0.00000000	      0.00000000	     89.76696548	     -1.12319252	     38.91163488	     23.94545678	     21.91314342	      0.00000000	      0.00000000
      0.02000000	    -19.41151928	      2.80193837	      2.76298880	      0.09415903	      1.07445706	     -0.26014425	      0.00000000	      0.50000000	      0.00000000	      0.25000000	     45.68715680	     -7.83815994	     -3.32426442	     42.56626913	      0.74292155	      1.25386099	    -11.51329186	      0.00000000	      0.00000000	     96.39960269	     -3.06870051	     -1.13179800	    108.06729502	      1.88613011	     24.05030644	     -4.57270750	      0.00000000	      0.00000000	    -47.32437623	     -1.37190652	     -3.54893788	     89.67689629	     -6.76366908	     36.22860151	     23.90202132	     25.61945371	      0.00000000	      0.00000000	     89.76895208	     -1.01233376	     37.41037143	     25.38812508	     23.08603110	      0.00000000	      0.00000000
      0.02500000	    -19.60769416	      2.87634469	      2.69813131	      0.09398313	      1.07399148	     -0.25992316	      0.00000000	      0.50000000	      0.00000000	      0.25000000	     45.98224295	     -7.82129487	     -3.12546689	     42.68224009	      0.74494562	      1.39303174	    -11.44851685	      0.00000000	      0.00000000	     96.62747966	     -3.12827610	     -1.17664801	    108.11035915	      1.88688172	     23.96432276	     -4.58616575	      0.00000000	      0.00000000	    -47.00340000	     -1.52499441	     -3.61239784	     89.68606428	     -6.91965871	     38.70250945	     23.11457710	     25.85652845	      0.00000000	      0.00000000	     89.77277488	     -1.35678172	     40.37843195	     23.75428875	     23.08541679	      0.00000000	      0.00000000
